<?xml version="1.0" encoding="iso-8859-1"?>
<!-- Generator: Adobe Illustrator 20.0.0, SVG Export Plug-In . SVG Version: 6.00 Build 0)  -->
<svg version="1.1" xmlns="http://www.w3.org/2000/svg" xmlns:xlink="http://www.w3.org/1999/xlink" x="0px" y="0px"
	 viewBox="0 0 1136 640" style="enable-background:new 0 0 1136 640;" xml:space="preserve">
<g id="bg-color">
	<rect x="-3.562" y="-4" style="fill:#586787;" width="1139.562" height="648"/>
</g>
<g id="mountains" style="opacity:0.7;">
	<g>
		<path style="fill:#997AC2;" d="M96.5,410.302c19.687-36.574,155.735-275.707,164.577-275.598
			c8.843,0.109,132.169,283.472,124.169,291.47S260,422.678,231,426.339S89.803,422.744,96.5,410.302z"/>
		<path style="fill:#A585CC;" d="M377.265,395.617C350.51,320.715,268.24,134.793,261.077,134.705
			c-1.261-0.016-5.112,4.84-10.841,13.274c25.826,40.902,124.28,247.735,124.28,247.735L377.265,395.617z"/>
		<path style="fill:#8D6EB7;" d="M239.074,165.127C197.604,230.718,111.82,381.84,96.5,410.302
			c-6.03,11.202,84.314,18.199,123.545,16.81c48.874-36.249,81.286-79.791,56.726-107.112
			C232.81,271.098,228.642,211.013,239.074,165.127z"/>
	</g>
	<g>
		<path style="fill:#C09DE0;" d="M61.166,31.706C72.259,39.149,267,398.911,273,413.004c6,14.093-405,30.818-400-7.484
			C-126.869,404.519,53.423,26.511,61.166,31.706z"/>
		<path style="fill:#CEA4EB;" d="M61.166,31.706c-1.765-1.184-12.497,17.546-28.014,47.177
			C75.72,104.986,165.03,214.236,233.069,358.211c11.774,24.914,23.157,44.085,33.721,58.211c4.469-1.136,6.692-2.286,6.21-3.418
			C267,398.911,72.259,39.149,61.166,31.706z"/>
		<path style="fill:#FFFFFF;" d="M61.166,31.706c-2.12-1.422-17.172,25.876-37.919,66.296c8.181,14.395,22.717,23.942,36.753,23.265
			c16.561-0.799,34.794-10.15,48.797-9.925C83.409,66.275,64.414,33.886,61.166,31.706z"/>
		<path style="fill:#B191D6;" d="M15.921,112.353C-39.81,222.054-126.909,404.824-127,405.52
			c-2.752,21.078,120.476,25.491,230.863,22.849C44.722,324.838,19.246,199.063,15.921,112.353z"/>
	</g>
	<g>
		<path style="fill:#C09DE0;" d="M277,438c0.335-1.005,176.434-368.14,190.406-374.746c9.44-4.464,19.324,0.882,28.594,24.104
			C525,160,625.788,415,625.788,438S499,438,462,444S270,459,277,438z"/>
		<path style="fill:#CEA4EB;" d="M603.901,447.922c13.317-1.081,21.887-3.947,21.887-9.922C625.788,415,525,160,496,87.357
			c-9.27-23.222-19.154-28.568-28.594-24.104c-2.406,1.138-9.623,12.973-19.922,31.788
			C501.29,150.385,592.884,415.641,603.901,447.922z"/>
		<path style="fill:#FFFFFF;" d="M471.493,121.267c14.68,0.515,26.839,11.362,35.181-7.08c-4.159-10.487-7.775-19.571-10.673-26.83
			c-9.27-23.222-19.154-28.568-28.594-24.104c-3.359,1.589-16.094,24.026-33.503,57.199
			C439.878,140.027,450.567,120.533,471.493,121.267z"/>
		<path style="fill:#B191D6;" d="M480.828,413.004c-25.611-43.522-54.531-176.977-57.59-272.027
			C366.764,250.578,277.239,437.284,277,438c-7,21,148,12,185,6c8.957-1.452,23.182-1.203,39.589-0.321
			C493.617,432.988,486.445,422.55,480.828,413.004z"/>
	</g>
	<g>
		<path style="fill:#A291D6;" d="M-39,453c1.937-21.846,149-277.573,157-268.787S255,437,244,453S-40.233,466.905-39,453z"/>
		<path style="fill:#C1AEEB;" d="M242.304,438L242.304,438l-5.12-14.883C210.971,353.943,124.504,191.356,118,184.213
			c-1.931-2.121-11.965,11.171-26.103,32.862C150.292,269.934,242.303,437.998,242.304,438z"/>
		<path style="fill:#9985CC;" d="M77.527,239.716C31.35,314.047-37.677,438.078-39,453c-0.729,8.22,94.452,12.312,174.679,10.979
			C91.437,401.859,76.502,298.763,77.527,239.716z"/>
	</g>
	<g>
		<path style="fill:#997AC2;" d="M613,473.156C634.609,447.896,718.365,303,729.683,302s136.642,180.302,122.443,190
			c-14.2,9.698-78.476-7.675-123.801-4.338C683,491,602.446,485.492,613,473.156z"/>
		<path style="fill:#A585CC;" d="M729.683,302c-2.313,0.204-7.653,6.423-14.868,16.397c13.126,1.538,34.345,14.418,52.449,27.052
			C748.601,320.029,733.304,301.68,729.683,302z"/>
		<path style="fill:#8D6EB7;" d="M613,473.156c-10.554,12.337,70,17.844,115.325,14.506c8.432-0.621,17.521-0.524,26.821-0.019
			c-34.511-37.893-54.797-95.149-58.382-142.726C667.181,390.052,627.018,456.77,613,473.156z"/>
	</g>
	<g>
		<path style="fill:#C09DE0;" d="M791.571,453C812.754,401.961,971,85.838,987,85.419C1003,85,1181.818,438.467,1177,460
			s-113-1.16-149,11.92S781.447,477.395,791.571,453z"/>
		<path style="fill:#CEA4EB;" d="M1024.759,141.882C1005.5,107.833,991.045,85.313,987,85.419
			C971,85.838,812.754,401.961,791.571,453c-3.054,7.359,13.978,13.189,40.238,17.386
			C888.164,323.8,968.765,186.67,1024.759,141.882z"/>
		<path style="fill:#B191D6;" d="M1177,460c3.336-14.908-81.351-188.922-139.087-294.447
			c4.808,84.944-75.708,225.72-131.072,311.703c51.691,2.301,104.69,0.647,121.159-5.336C1064,458.84,1172.182,481.532,1177,460z"/>
		<path style="fill:#FFFFFF;" d="M1051.654,191c-31.9-59.792-58.88-105.732-64.654-105.581
			c-6.03,0.158-32.267,45.163-63.755,103.916c14.472,10.271,33.43,9.346,47.751-6.335C992,160,1051.654,191,1051.654,191
			L1051.654,191z"/>
	</g>
	<g>
		<path style="fill:#A291D6;" d="M332.429,473.156c28.391-32.804,118.339-149.764,144.309-224.769
			C479.987,239,503.872,297,512.93,294c9.058-3,85.501-126.17,93.279-130.585C613.987,159,692.714,473.036,732.651,500
			c39.937,26.964-11.664,32.259-102.664,39.63C538.987,547,275.353,539.104,332.429,473.156z"/>
		<path style="fill:#C1AEEB;" d="M732.651,500c-39.937-26.964-118.664-341-126.442-336.585c-2.329,1.322-10.82,13.299-21.811,29.505
			c25.524,42.086,92.509,222.521,133.956,337.071C747.888,524.291,756.239,515.925,732.651,500z"/>
		<path style="fill:#C1AEEB;" d="M512.93,294c-9.058,3-32.942-55-36.192-45.614c-1.998,5.771-4.378,11.792-7.076,18.002
			C484.852,289.072,508.657,298.032,512.93,294z"/>
		<path style="fill:#9985CC;" d="M548.526,268.588c-15.077,30.282-32.02,62.815-42.178,84.442
			c-9.822,20.912-19.634,38.316-34.142,13.334c-12.231-21.062-17.862-43.63-13.953-74.625
			c-36.764,70.727-101.881,154.806-125.26,181.82c-57.076,65.948,206.559,73.844,297.559,66.474
			c26.783-2.169,50.147-4.159,68.775-6.574c-36.761-61.775-100.271-105.102-136.762-213.055
			C550.563,284.903,557.235,251.095,548.526,268.588z"/>
	</g>
	<g>
		<path style="fill:#997AC2;" d="M973,482.129c20.588-35.69,127.698-284.328,139-275.129s137,240.65,121,275.129
			s-50.042,30.477-113.042,20.576S959.011,506.381,973,482.129z"/>
		<path style="fill:#A585CC;" d="M1129.146,233.562c-8.686-14.985-14.993-24.809-17.146-26.562
			c-11.302-9.199-118.412,239.439-139,275.129c-5.877,10.189,8.007,13.7,30.754,15.081
			C1027.213,401.805,1080.996,296.078,1129.146,233.562z"/>
		<path style="fill:#8D6EB7;" d="M1233,482.129c10.865-23.413-43.604-137.643-83.229-211.442
			c3.76,75.432-42.197,167.608-78.682,228.115c16.949,0.524,33.896,1.55,48.868,3.903C1182.958,512.606,1217,516.609,1233,482.129z"
			/>
	</g>
	<g>
		<path style="fill:#A291D6;" d="M812.025,473.156c18.582-23.192,160.741-200.839,177.858-229.498
			C1007,215,1026,255.985,1042,301.993S1164,475.228,1186,498s-80.934,20.352-156,29.08
			C954.934,535.809,751.383,548.843,812.025,473.156z"/>
		<path style="fill:#C1AEEB;" d="M989.883,243.658c-12.587,21.073-92.782,122.703-141.741,184.247
			c76.87-55.879,109.575-119.199,139.308-146.017c17.397-15.691,32.405-15.013,42.787-10.774
			C1017.138,240.522,1002.961,221.762,989.883,243.658z"/>
		<path style="fill:#9985CC;" d="M877.6,532.421c51.64,3.959,116.617-1.18,152.4-5.341c75.066-8.728,178-6.308,156-29.08
			s-128-150-144-196.008C1049.282,348.955,972.993,466.575,877.6,532.421z"/>
	</g>
	<g>
		<path style="fill:#CEA4EB;" d="M629,528.07c17.018-26.099,167-248.548,186.055-237.407
			c30.287,17.71,47.388,122.375,98.945,173.565C946,496,989,511,963,532S588.901,589.568,629,528.07z"/>
		<path style="fill:#E0B2FF;" d="M856.417,364.568c-14.444-34.645-26.265-65.077-41.362-73.905
			c-6.933-4.054-31.199,22.817-60.084,59.899C779.555,326.134,805.75,318.43,856.417,364.568z"/>
		<path style="fill:#C09DE0;" d="M963,532c17.189-13.883,4.218-25.146-15.793-40.364c-6.118-1.085-11.64-2.106-16.207-3.015
			c-28.586-5.686-174.25-48.433-204.209-100.754C682.987,447.337,637.882,514.448,629,528.07C588.901,589.568,937,553,963,532z"/>
	</g>
	<g>
		<path style="fill:#CEA4EB;" d="M152,454c0.001-0.001,174.77-269.697,174.771-269.697C347,159,353.517,267.177,374.517,324.11
			s91.469,152.023,96.976,159.956C477,492,329.155,557,261.077,551S122,504,152,454z"/>
		<path style="fill:#E0B2FF;" d="M471.493,484.066c-5.507-7.933-75.976-103.023-96.976-159.956
			c-21-56.933-27.517-165.11-47.746-139.807c0,0-7.519,11.604-19.432,29.987C313.751,237,333.985,422.133,471.493,484.066z"/>
		<path style="fill:#C09DE0;" d="M272.413,268.185C221.11,347.352,152,453.999,152,454c-30,50,41,91,109.077,97
			c5.967,0.526,12.558,0.496,19.594,0.017C261.541,489.196,258.668,366.442,272.413,268.185z"/>
	</g>
	<g>
		<path style="fill:#76BE3E;" d="M101.66,543.473C155,509.623,355.311,443.329,471.642,446
			c168.358,3.866,300.43,100.257,357.43,105.456c57,5.199-58.572,33.886-253.13,31.948
			C390.422,581.557,12.284,600.191,101.66,543.473z"/>
		<path style="fill:#66B637;" d="M543.056,534.872c-100.478-7.933-197.478-39.557-218.631-69.743
			c-94.092,21.653-188.591,56.657-222.765,78.343c-89.376,56.718,288.761,38.084,474.282,39.931
			c31.472,0.313,60.873-0.175,87.815-1.236C645.739,559.751,599.877,539.358,543.056,534.872z"/>
		<path style="fill:#9ACF4E;" d="M829.072,551.456c-57-5.199-189.072-101.59-357.43-105.456
			c-59.452-1.365-140.834,15.285-213.327,36.409c64.869-17.279,133.551-29.84,185.493-28.647
			c168.358,3.866,300.43,100.257,357.43,105.456c15.293,1.395,18.158,4.481,10.413,8.212
			C845.75,560.632,854.25,553.752,829.072,551.456z"/>
	</g>
	<g>
		<path style="fill:#76BE3E;" d="M729.136,550.733C885.139,492.693,1045,451.249,1131,456.625c86,5.375,211,76.173,250,85.103
			s2,30.035-127,30.72C1125,573.132,657.771,577.284,729.136,550.733z"/>
		<path style="fill:#9ACF4E;" d="M755.272,564.549c156.004-58.041,315.864-99.484,401.864-94.109
			c26.272,1.642,57.562,8.104,89.462,16.537c-39.387-15.22-80.703-28.172-115.598-30.354c-86-5.375-245.861,36.068-401.864,94.109
			c-16.477,6.13-4.229,10.622,25.922,13.9C755.132,564.605,755.196,564.577,755.272,564.549z"/>
	</g>
	<g>
		<path style="fill:#86C545;" d="M-46,461.901c36.836-19.245,75.483-62.952,142.846-52.46
			c67.363,10.492,256.377,128.441,341.243,144.441S343.117,586.71,237,591.662c-106.117,4.952-435,11.174-469,3.5
			C-266,587.487-153,517.802-46,461.901z"/>
		<path style="fill:#ADD957;" d="M438.089,553.882c-84.866-16-273.88-133.949-341.243-144.441
			c-37.719-5.875-66.433,5.244-90.868,19.546c20.769-6.199,43.269-9.142,67.083-5.432
			c67.363,10.492,256.377,128.441,341.243,144.441c8.894,1.677,14.87,3.363,18.339,5.043
			C463.249,567.092,472.756,560.418,438.089,553.882z"/>
		<path style="fill:#76BE3E;" d="M-26.192,449.866c-6.757,4.484-13.311,8.641-19.808,12.035c-107,55.901-220,125.586-186,133.261
			c21.012,4.743,154.642,4.178,278.717,1.886C-44.52,559.15-45.273,497.201-26.192,449.866z"/>
	</g>
	<g>
		<path style="fill:#86C545;" d="M551.057,609c-71.944-5.294-204.568-28.021-128.057-47.326s289-120.218,367-114.446
			c78,5.772,256,117.286,307,127.558c51,10.272-133.535,36.714-216.535,34.714S586.135,611.581,551.057,609z"/>
		<path style="fill:#ADD957;" d="M1097,574.786C1046,564.513,868,453,790,447.228S499.511,542.37,423,561.674
			c-14.613,3.687-21.59,7.499-22.825,11.29c2.387-0.772,5.082-1.54,8.105-2.303c76.511-19.305,289-120.218,367-114.446
			c78,5.772,256,117.286,307,127.558c4.272,0.861,6.884,1.835,8.049,2.896C1106.804,582.075,1111.741,577.755,1097,574.786z"/>
		<path style="fill:#76BE3E;" d="M465.757,572.447C575.92,510.628,655,500,715,497s222.699,49.94,251,77.786
			C994.301,602.632,370.514,625.895,465.757,572.447z"/>
	</g>
	<g>
		<circle style="fill:#FFFFFF;" cx="600.094" cy="46.636" r="5.462"/>
		<circle style="fill:#FFFFFF;" cx="692.5" cy="205.5" r="8.5"/>
		<circle style="fill:#FFFFFF;" cx="843" cy="246" r="4.55"/>
		<circle style="fill:#FFFFFF;" cx="946.604" cy="43.514" r="6.951"/>
		<circle style="fill:#FFFFFF;" cx="1092" cy="147.3" r="6"/>
		<circle style="fill:#FFFFFF;" cx="415" cy="34.126" r="4.501"/>
		<circle style="fill:#FFFFFF;" cx="388.653" cy="158.648" r="4.685"/>
		<circle style="fill:#FFFFFF;" cx="301.674" cy="112.353" r="8.948"/>
		<circle style="fill:#FFFFFF;" cx="206.117" cy="15.335" r="4.554"/>
		<circle style="fill:#FFFFFF;" cx="173.783" cy="151" r="3.217"/>
		<circle style="fill:#FFFFFF;" cx="115.5" cy="54.722" r="4.968"/>
		<circle style="fill:#FFFFFF;" cx="18.5" cy="25" r="4.747"/>
	</g>
</g>
<g id="moon">
	<path style="fill:#FFFF7A;" d="M810.733,51.535c-1.124,0-2.24,0.032-3.351,0.085c11.45,10.041,18.689,24.767,18.689,41.192
		c0,30.255-24.526,54.781-54.781,54.781c-10.112,0-19.576-2.751-27.706-7.529C751.792,169.442,778.736,191,810.733,191
		c38.512,0,69.733-31.22,69.733-69.733C880.465,82.755,849.245,51.535,810.733,51.535z"/>
</g>
<g id="wall">
	<g>
		<g>
			<path style="fill:#6F6B91;" d="M1131,554.351h-46.106v-40c0-4.418,3.582-8,8-8H1123c4.418,0,8,3.582,8,8V554.351z"/>
			<path style="fill:#6F6B91;" d="M1045.393,554.351h-46.106v-40c0-4.418,3.582-8,8-8h30.106c4.418,0,8,3.582,8,8V554.351z"/>
			<path style="fill:#6F6B91;" d="M960.786,554.351h-46.106v-40c0-4.418,3.582-8,8-8h30.106c4.418,0,8,3.582,8,8V554.351z"/>
			<path style="fill:#6F6B91;" d="M875.178,554.351h-46.106v-40c0-4.418,3.582-8,8-8h30.106c4.418,0,8,3.582,8,8V554.351z"/>
			<path style="fill:#6F6B91;" d="M791.571,554.351h-46.106v-40c0-4.418,3.582-8,8-8h30.106c4.418,0,8,3.582,8,8V554.351z"/>
			<path style="fill:#6F6B91;" d="M705.964,554.351h-46.106v-40c0-4.418,3.582-8,8-8h30.106c4.418,0,8,3.582,8,8V554.351z"/>
			<path style="fill:#6F6B91;" d="M622.357,554.351H576.25v-40c0-4.418,3.582-8,8-8h30.106c4.418,0,8,3.582,8,8V554.351z"/>
			<path style="fill:#6F6B91;" d="M536.75,554.351h-46.106v-40c0-4.418,3.582-8,8-8h30.106c4.418,0,8,3.582,8,8V554.351z"/>
			<path style="fill:#C5C5D9;" d="M547.606,554.351H501.5v-40c0-4.418,3.582-8,8-8h30.106c4.418,0,8,3.582,8,8V554.351z"/>
			<path style="fill:#C5C5D9;" d="M461.142,554.351h-46.106v-40c0-4.418,3.582-8,8-8h30.106c4.418,0,8,3.582,8,8V554.351z"/>
			<path style="fill:#C5C5D9;" d="M378.535,554.351h-46.106v-40c0-4.418,3.582-8,8-8h30.106c4.418,0,8,3.582,8,8V554.351z"/>
			<path style="fill:#C5C5D9;" d="M293.928,554.351h-46.106v-40c0-4.418,3.582-8,8-8h30.106c4.418,0,8,3.582,8,8V554.351z"/>
			<path style="fill:#C5C5D9;" d="M209.321,554.351h-46.106v-40c0-4.418,3.582-8,8-8h30.106c4.418,0,8,3.582,8,8V554.351z"/>
			<path style="fill:#C5C5D9;" d="M124.714,554.351H78.607v-40c0-4.418,3.582-8,8-8h30.106c4.418,0,8,3.582,8,8V554.351z"/>
			<path style="fill:#C5C5D9;" d="M40.106,554.351H-6v-40c0-4.418,3.582-8,8-8h30.106c4.418,0,8,3.582,8,8V554.351z"/>
			<g>
				<g>
					<path style="fill:#827F9C;" d="M1145,554.351h-48v-40c0-4.418,3.582-8,8-8h32c4.418,0,8,3.582,8,8V554.351z"/>
				</g>
				<g>
					<path style="fill:#827F9C;" d="M1059,554.351h-48v-40c0-4.418,3.582-8,8-8h32c4.418,0,8,3.582,8,8V554.351z"/>
				</g>
				<g>
					<path style="fill:#827F9C;" d="M973,554.351h-48v-40c0-4.418,3.582-8,8-8h32c4.418,0,8,3.582,8,8V554.351z"/>
				</g>
				<g>
					<path style="fill:#827F9C;" d="M887,554.351h-48v-40c0-4.418,3.582-8,8-8h32c4.418,0,8,3.582,8,8V554.351z"/>
				</g>
				<g>
					<path style="fill:#827F9C;" d="M801,554.351h-48v-40c0-4.418,3.582-8,8-8h32c4.418,0,8,3.582,8,8V554.351z"/>
				</g>
				<g>
					<path style="fill:#827F9C;" d="M715,554.351h-48v-40c0-4.418,3.582-8,8-8h32c4.418,0,8,3.582,8,8V554.351z"/>
				</g>
				<g>
					<path style="fill:#827F9C;" d="M629,554.351h-48v-40c0-4.418,3.582-8,8-8h32c4.418,0,8,3.582,8,8V554.351z"/>
				</g>
				<g>
					<path style="fill:#827F9C;" d="M543,554.351h-48v-40c0-4.418,3.582-8,8-8h32c4.418,0,8,3.582,8,8V554.351z"/>
				</g>
				<g>
					<path style="fill:#827F9C;" d="M457,554.351h-48v-40c0-4.418,3.582-8,8-8h32c4.418,0,8,3.582,8,8V554.351z"/>
				</g>
				<g>
					<path style="fill:#827F9C;" d="M371,554.351h-48v-40c0-4.418,3.582-8,8-8h32c4.418,0,8,3.582,8,8V554.351z"/>
				</g>
				<g>
					<path style="fill:#827F9C;" d="M285,554.351h-48v-40c0-4.418,3.582-8,8-8h32c4.418,0,8,3.582,8,8V554.351z"/>
				</g>
				<g>
					<path style="fill:#827F9C;" d="M199,554.351h-48v-40c0-4.418,3.582-8,8-8h32c4.418,0,8,3.582,8,8V554.351z"/>
				</g>
				<g>
					<path style="fill:#827F9C;" d="M113,554.351H65v-40c0-4.418,3.582-8,8-8h32c4.418,0,8,3.582,8,8V554.351z"/>
				</g>
				<g>
					<path style="fill:#827F9C;" d="M27,554.351h-48v-40c0-4.418,3.582-8,8-8h32c4.418,0,8,3.582,8,8V554.351z"/>
				</g>
			</g>
			<rect x="-21" y="540.425" style="fill:#827F9C;" width="1166" height="100.473"/>
		</g>
		<g>
			<g>
				<g>
					<circle style="fill:#6F6B91;" cx="1217.053" cy="612" r="18"/>
					<circle style="fill:#6F6B91;" cx="1252.5" cy="590.662" r="7.5"/>
					<circle style="fill:#6F6B91;" cx="1281.5" cy="612" r="12.512"/>
					<circle style="fill:#6F6B91;" cx="1306" cy="590.662" r="9.5"/>
					<circle style="fill:#6F6B91;" cx="1327.627" cy="564.674" r="4.493"/>
					<circle style="fill:#6F6B91;" cx="1337.5" cy="598.162" r="5.838"/>
					<circle style="fill:#6F6B91;" cx="1320" cy="622.5" r="7.627"/>
					<circle style="fill:#6F6B91;" cx="1366" cy="618.5" r="16.5"/>
					<circle style="fill:#6F6B91;" cx="1470.875" cy="622.5" r="15.5"/>
					<circle style="fill:#6F6B91;" cx="1540.5" cy="590.662" r="16.338"/>
					<circle style="fill:#6F6B91;" cx="1503" cy="604" r="8.5"/>
					<circle style="fill:#6F6B91;" cx="1500.5" cy="574.323" r="6.838"/>
					<circle style="fill:#6F6B91;" cx="1473" cy="590.662" r="4"/>
					<circle style="fill:#6F6B91;" cx="1397" cy="575.629" r="5.533"/>
					<circle style="fill:#6F6B91;" cx="1437" cy="594.662" r="7.665"/>
					<circle style="fill:#6F6B91;" cx="1412" cy="612.5" r="12.012"/>
					<circle style="fill:#6F6B91;" cx="1357.5" cy="581.162" r="5.714"/>
					<circle style="fill:#6F6B91;" cx="1213.5" cy="567.485" r="5.5"/>
					<circle style="fill:#6F6B91;" cx="1532.429" cy="620.5" r="5.5"/>
					<circle style="fill:#6F6B91;" cx="1571" cy="615" r="9.512"/>
					<circle style="fill:#6F6B91;" cx="1581.119" cy="588.781" r="6.603"/>
					<circle style="fill:#6F6B91;" cx="1252.5" cy="640" r="13.522"/>
					<circle style="fill:#6F6B91;" cx="1432.989" cy="636.011" r="7.91"/>
				</g>
			</g>
			<g>
				<g>
					<circle style="fill:#6F6B91;" cx="817.053" cy="612" r="18"/>
					<circle style="fill:#6F6B91;" cx="852.5" cy="590.662" r="7.5"/>
					<circle style="fill:#6F6B91;" cx="881.5" cy="612" r="12.512"/>
					<circle style="fill:#6F6B91;" cx="906" cy="590.662" r="9.5"/>
					<circle style="fill:#6F6B91;" cx="927.627" cy="564.674" r="4.493"/>
					<circle style="fill:#6F6B91;" cx="937.5" cy="598.162" r="5.838"/>
					<circle style="fill:#6F6B91;" cx="920" cy="622.5" r="7.627"/>
					<circle style="fill:#6F6B91;" cx="966" cy="618.5" r="16.5"/>
					<circle style="fill:#6F6B91;" cx="1070.875" cy="622.5" r="15.5"/>
					<circle style="fill:#6F6B91;" cx="1140.5" cy="590.662" r="16.338"/>
					<circle style="fill:#6F6B91;" cx="1103" cy="604" r="8.5"/>
					<circle style="fill:#6F6B91;" cx="1100.5" cy="574.323" r="6.838"/>
					<circle style="fill:#6F6B91;" cx="1073" cy="590.662" r="4"/>
					<circle style="fill:#6F6B91;" cx="997" cy="575.629" r="5.533"/>
					<circle style="fill:#6F6B91;" cx="1037" cy="594.662" r="7.665"/>
					<circle style="fill:#6F6B91;" cx="1012" cy="612.5" r="12.012"/>
					<circle style="fill:#6F6B91;" cx="957.5" cy="581.162" r="5.714"/>
					<circle style="fill:#6F6B91;" cx="813.5" cy="567.485" r="5.5"/>
					<circle style="fill:#6F6B91;" cx="1132.429" cy="620.5" r="5.5"/>
					<circle style="fill:#6F6B91;" cx="1171" cy="615" r="9.512"/>
					<circle style="fill:#6F6B91;" cx="1181.119" cy="588.781" r="6.603"/>
					<circle style="fill:#6F6B91;" cx="852.5" cy="640" r="13.522"/>
					<circle style="fill:#6F6B91;" cx="1032.989" cy="636.011" r="7.91"/>
				</g>
			</g>
			<g>
				<g>
					<circle style="fill:#6F6B91;" cx="417.053" cy="612" r="18"/>
					<circle style="fill:#6F6B91;" cx="452.5" cy="590.662" r="7.5"/>
					<circle style="fill:#6F6B91;" cx="481.5" cy="612" r="12.512"/>
					<circle style="fill:#6F6B91;" cx="506" cy="590.662" r="9.5"/>
					<circle style="fill:#6F6B91;" cx="527.627" cy="564.674" r="4.493"/>
					<circle style="fill:#6F6B91;" cx="537.5" cy="598.162" r="5.838"/>
					<circle style="fill:#6F6B91;" cx="520" cy="622.5" r="7.627"/>
					<circle style="fill:#6F6B91;" cx="566" cy="618.5" r="16.5"/>
					<circle style="fill:#6F6B91;" cx="670.875" cy="622.5" r="15.5"/>
					<circle style="fill:#6F6B91;" cx="740.5" cy="590.662" r="16.338"/>
					<circle style="fill:#6F6B91;" cx="703" cy="604" r="8.5"/>
					<circle style="fill:#6F6B91;" cx="700.5" cy="574.323" r="6.838"/>
					<circle style="fill:#6F6B91;" cx="673" cy="590.662" r="4"/>
					<circle style="fill:#6F6B91;" cx="597" cy="575.629" r="5.533"/>
					<circle style="fill:#6F6B91;" cx="637" cy="594.662" r="7.665"/>
					<circle style="fill:#6F6B91;" cx="612" cy="612.5" r="12.012"/>
					<circle style="fill:#6F6B91;" cx="557.5" cy="581.162" r="5.714"/>
					<circle style="fill:#6F6B91;" cx="413.5" cy="567.485" r="5.5"/>
					<circle style="fill:#6F6B91;" cx="732.429" cy="620.5" r="5.5"/>
					<circle style="fill:#6F6B91;" cx="771" cy="615" r="9.512"/>
					<circle style="fill:#6F6B91;" cx="781.119" cy="588.781" r="6.603"/>
					<circle style="fill:#6F6B91;" cx="452.5" cy="640" r="13.522"/>
					<circle style="fill:#6F6B91;" cx="632.989" cy="636.011" r="7.91"/>
				</g>
			</g>
			<g>
				<g>
					<circle style="fill:#6F6B91;" cx="17.053" cy="612" r="18"/>
					<circle style="fill:#6F6B91;" cx="52.5" cy="590.662" r="7.5"/>
					<circle style="fill:#6F6B91;" cx="81.5" cy="612" r="12.512"/>
					<circle style="fill:#6F6B91;" cx="106" cy="590.662" r="9.5"/>
					<circle style="fill:#6F6B91;" cx="127.627" cy="564.674" r="4.493"/>
					<circle style="fill:#6F6B91;" cx="137.5" cy="598.162" r="5.838"/>
					<circle style="fill:#6F6B91;" cx="120" cy="622.5" r="7.627"/>
					<circle style="fill:#6F6B91;" cx="166" cy="618.5" r="16.5"/>
					<circle style="fill:#6F6B91;" cx="270.875" cy="622.5" r="15.5"/>
					<circle style="fill:#6F6B91;" cx="340.5" cy="590.662" r="16.338"/>
					<circle style="fill:#6F6B91;" cx="303" cy="604" r="8.5"/>
					<circle style="fill:#6F6B91;" cx="300.5" cy="574.323" r="6.838"/>
					<circle style="fill:#6F6B91;" cx="273" cy="590.662" r="4"/>
					<circle style="fill:#6F6B91;" cx="197" cy="575.629" r="5.533"/>
					<circle style="fill:#6F6B91;" cx="237" cy="594.662" r="7.665"/>
					<circle style="fill:#6F6B91;" cx="212" cy="612.5" r="12.012"/>
					<circle style="fill:#6F6B91;" cx="157.5" cy="581.162" r="5.714"/>
					<circle style="fill:#6F6B91;" cx="13.5" cy="567.485" r="5.5"/>
					<circle style="fill:#6F6B91;" cx="332.429" cy="620.5" r="5.5"/>
					<circle style="fill:#6F6B91;" cx="371" cy="615" r="9.512"/>
					<circle style="fill:#6F6B91;" cx="381.119" cy="588.781" r="6.603"/>
					<circle style="fill:#6F6B91;" cx="52.5" cy="640" r="13.522"/>
					<circle style="fill:#6F6B91;" cx="232.989" cy="636.011" r="7.91"/>
				</g>
			</g>
		</g>
	</g>
</g>
</svg>
