<?xml version="1.0" encoding="iso-8859-1"?>
<!-- Generator: Adobe Illustrator 20.0.0, SVG Export Plug-In . SVG Version: 6.00 Build 0)  -->
<svg version="1.1" xmlns="http://www.w3.org/2000/svg" xmlns:xlink="http://www.w3.org/1999/xlink" x="0px" y="0px"
	 viewBox="0 0 30 22.599" style="enable-background:new 0 0 30 22.599;" xml:space="preserve">
<g id="Items">
	<g>
		<path style="fill:#86C545;" d="M2.338,13.703c0,0,4.745-10.027,9.619-9.665s16.516,2.518,15.704,4.554
			c-0.812,2.036-6.368,9.017-7.922,9.859C18.184,19.292,1.386,15.522,2.338,13.703z"/>
		<path style="fill:#C3E360;" d="M12.314,6.646C15.86,6.91,23.515,8.176,27.11,9.63c0.251-0.414,0.444-0.771,0.551-1.039
			C28.473,6.555,16.83,4.4,11.957,4.038c-4.874-0.362-9.619,9.665-9.619,9.665c-0.08,0.153-0.025,0.32,0.126,0.497
			C5.157,10.828,9.286,6.421,12.314,6.646z"/>
	</g>
</g>
<g>
</g>
</svg>
