<?xml version="1.0" encoding="iso-8859-1"?>
<!-- Generator: Adobe Illustrator 20.0.0, SVG Export Plug-In . SVG Version: 6.00 Build 0)  -->
<svg version="1.1" xmlns="http://www.w3.org/2000/svg" xmlns:xlink="http://www.w3.org/1999/xlink" x="0px" y="0px"
	 viewBox="0 0 92 35.285" style="enable-background:new 0 0 92 35.285;" xml:space="preserve">
<g id="Items">
	<g>
		<path style="fill:#9ACF4E;" d="M87.783,33.643l2.92,1.597C91.347,35.44,92,34.959,92,34.284V1.001
			c0-0.674-0.653-1.155-1.297-0.955l-2.92,1.597H4.217l-2.92-1.597C0.653-0.154,0,0.327,0,1.001v33.284
			c0,0.674,0.653,1.155,1.297,0.955l2.92-1.597H87.783z"/>
		<rect x="4.217" y="4.549" style="fill:#DBEE6A;" width="83.567" height="9.764"/>
		<rect x="4.217" y="19.396" style="fill:#86C545;" width="83.567" height="5.401"/>
		<path style="fill:#5BB132;" d="M87.493,33.643H4.507c-0.16,0-0.29-0.13-0.29-0.29v-4.497h83.567v4.497
			C87.783,33.513,87.654,33.643,87.493,33.643z"/>
		<polygon style="fill:#76BE3E;" points="89.783,34.736 89.783,0.549 87.783,1.643 87.783,33.643 		"/>
		<polygon style="fill:#C3E360;" points="2.217,34.733 2.217,0.545 4.217,1.643 4.217,33.643 		"/>
		<path style="fill:#86C545;" d="M2.217,0.545l-0.92-0.5C0.653-0.154,0,0.327,0,1.001v33.284c0,0.674,0.653,1.155,1.297,0.955
			l0.92-0.506V0.545z"/>
	</g>
</g>
<g>
</g>
</svg>
