<?xml version="1.0" encoding="iso-8859-1"?>
<!-- Generator: Adobe Illustrator 20.0.0, SVG Export Plug-In . SVG Version: 6.00 Build 0)  -->
<svg version="1.1" xmlns="http://www.w3.org/2000/svg" xmlns:xlink="http://www.w3.org/1999/xlink" x="0px" y="0px"
	 viewBox="0 0 120 46.004" style="enable-background:new 0 0 120 46.004;" xml:space="preserve">
<g id="Items">
	<g>
		<path style="fill:#DFE2EB;" d="M60,46.004c-4,0-10.158-1.133-10.158-4.381c0-4.244,6.283-13.994,10.158-13.994
			s10.158,9.75,10.158,13.994C70.158,44.872,64,46.004,60,46.004z"/>
		<path style="fill:#242424;" d="M60,42.628c-1.378,0-3.5-0.716-3.5-2.771c0-2.684,2.165-8.851,3.5-8.851
			c1.335,0,3.5,6.167,3.5,8.851C63.5,41.911,61.378,42.628,60,42.628z"/>
		<path style="fill:#404040;" d="M23.321,1.771C22.445-0.174,19.5,0.004,17.5,0.004H6.745C3.02,0.004,0,3.024,0,6.749v8.499
			c0,1.756,2.375,3.847,4.625,1.802S25.018,5.538,23.321,1.771z"/>
		<path style="fill:#404040;" d="M96.679,1.771c0.876-1.946,3.821-1.767,5.821-1.767h10.755c3.725,0,6.745,3.02,6.745,6.745v8.499
			c0,1.756-2.375,3.847-4.625,1.802S94.982,5.538,96.679,1.771z"/>
		<path d="M14.262,6.279c-2.785-3.465-9.858-2.524-5.498,4.101S17.899,10.803,14.262,6.279z"/>
		<path d="M105.738,6.279c2.785-3.465,9.858-2.524,5.498,4.101C106.875,17.004,102.101,10.803,105.738,6.279z"/>
		<path style="fill:#DFE2EB;" d="M60,32.747c-0.934,0.26-1.764,3.134-2.931,6.128c-2.194,5.629-9.444,6.998-14.194,6.998
			c-3.552,0-25.764,0.073-36.744,0.11C2.746,45.995,0,43.255,0,39.871V23.004c0-6.853,17.125-23,32.875-23
			c7.541,0,17.689,0,27.125,0s19.584,0,27.125,0c15.75,0,32.875,16.147,32.875,23v16.866c0,3.384-2.746,6.124-6.131,6.113
			c-10.98-0.037-33.193-0.11-36.744-0.11c-4.75,0-12-1.369-14.194-6.998C61.764,35.881,60.934,33.007,60,32.747z"/>
		<path style="fill:#ACB1C4;" d="M95.115,43.379c-20.643,0.226-28.696-1.137-31.615-8.625c-1.167-2.994-2.566-5.748-3.5-6.007
			c-0.934,0.26-2.333,3.138-3.5,6.132c-2.953,7.578-9.984,8.718-33.067,8.5C9.124,43.244,0,43.675,0,35.871v4
			c0,3.384,2.746,6.124,6.13,6.113c10.981-0.037,33.193-0.11,36.745-0.11c4.75,0,12-1.369,14.194-6.998
			c1.167-2.994,1.997-5.868,2.931-6.128c0.934,0.26,1.764,3.134,2.931,6.128c2.194,5.629,9.444,6.998,14.194,6.998
			c3.552,0,25.764,0.073,36.745,0.11c3.384,0.011,6.13-2.729,6.13-6.113v-4C120,43.802,111.775,43.197,95.115,43.379z"/>
		<path style="fill:#FFFFFF;" d="M87.125,0.004c-7.541,0-17.689,0-27.125,0s-19.584,0-27.125,0C17.125,0.004,0,16.151,0,23.004
			v1.249C0,17.773,17.125,2.504,32.875,2.504c7.541,0,17.689,0,27.125,0s19.584,0,27.125,0c15.75,0,32.875,15.269,32.875,21.749
			v-1.249C120,16.151,102.875,0.004,87.125,0.004z"/>
		<path style="fill:#404040;" d="M60,31.379c-2.25,0-11.212-8.25-7.875-11c1.641-1.353,5.602-0.576,7.875-0.534
			c2.273-0.042,6.234-0.819,7.875,0.534C71.212,23.129,62.25,31.379,60,31.379z"/>
		<path style="fill:#373737;" d="M41.875,31.379c5.051-4.451,10.457-16.898,6.728-21.462c-5.853-7.163-30.851-3.663-37.602,4.712
			S3.375,35.787,15.625,37.02S36.973,35.699,41.875,31.379z"/>
		<path style="fill:#373737;" d="M78.125,31.379c-5.051-4.451-10.457-16.898-6.728-21.462c5.853-7.163,30.851-3.663,37.602,4.712
			c6.751,8.375,7.626,21.157-4.624,22.391S83.027,35.699,78.125,31.379z"/>
		<ellipse style="fill:#94DBD3;" cx="29.433" cy="17.248" rx="5.625" ry="4.695"/>
		<ellipse style="fill:#94DBD3;" cx="90.567" cy="17.248" rx="5.625" ry="4.695"/>
		<ellipse cx="29.433" cy="16.44" rx="4.547" ry="3.604"/>
		<ellipse cx="90.567" cy="16.44" rx="4.547" ry="3.604"/>
		<ellipse style="fill:#FFFFFF;" cx="31.433" cy="15.248" rx="1.453" ry="1.213"/>
		<ellipse style="fill:#FFFFFF;" cx="88.567" cy="15.248" rx="1.453" ry="1.213"/>
	</g>
</g>
<g>
</g>
</svg>
